<?xml version="1.0" encoding="UTF-8" standalone="no"?>
<!-- Created with Inkscape (http://www.inkscape.org/) -->

<svg
   xmlns:dc="http://purl.org/dc/elements/1.1/"
   xmlns:cc="http://creativecommons.org/ns#"
   xmlns:rdf="http://www.w3.org/1999/02/22-rdf-syntax-ns#"
   xmlns:svg="http://www.w3.org/2000/svg"
   xmlns="http://www.w3.org/2000/svg"
   xmlns:sodipodi="http://sodipodi.sourceforge.net/DTD/sodipodi-0.dtd"
   xmlns:inkscape="http://www.inkscape.org/namespaces/inkscape"
   version="1.1"
   id="svg80"
   width="664.60071"
   height="664.60071"
   viewBox="0 0 664.60071 664.60071"
   sodipodi:docname="抽象化シャチホコ.svg"
   inkscape:version="0.92.2 5c3e80d, 2017-08-06"
   inkscape:export-filename="/Users/reno.89m/Desktop/塗りなし抽象化シャチホコ.png"
   inkscape:export-xdpi="245.56097"
   inkscape:export-ydpi="245.56097">
  <metadata
     id="metadata86">
    <rdf:RDF>
      <cc:Work
         rdf:about="">
        <dc:format>image/svg+xml</dc:format>
        <dc:type
           rdf:resource="http://purl.org/dc/dcmitype/StillImage" />
        <dc:title />
      </cc:Work>
    </rdf:RDF>
  </metadata>
  <defs
     id="defs84">
    <marker
       inkscape:stockid="Arrow1Lstart"
       orient="auto"
       refY="0"
       refX="0"
       id="marker1249"
       style="overflow:visible"
       inkscape:isstock="true">
      <path
         id="path1247"
         d="M 0,0 5,-5 -12.5,0 5,5 Z"
         style="fill:#ffff00;fill-opacity:1;fill-rule:evenodd;stroke:#ffff00;stroke-width:1.00000003pt;stroke-opacity:1"
         transform="matrix(0.8,0,0,0.8,10,0)"
         inkscape:connector-curvature="0" />
    </marker>
    <marker
       inkscape:stockid="Arrow1Lstart"
       orient="auto"
       refY="0"
       refX="0"
       id="marker1209"
       style="overflow:visible"
       inkscape:isstock="true">
      <path
         id="path1207"
         d="M 0,0 5,-5 -12.5,0 5,5 Z"
         style="fill:#ffff00;fill-opacity:1;fill-rule:evenodd;stroke:#ffff00;stroke-width:1.00000003pt;stroke-opacity:1"
         transform="matrix(0.8,0,0,0.8,10,0)"
         inkscape:connector-curvature="0" />
    </marker>
    <marker
       inkscape:stockid="Arrow1Lstart"
       orient="auto"
       refY="0"
       refX="0"
       id="marker1175"
       style="overflow:visible"
       inkscape:isstock="true">
      <path
         id="path1173"
         d="M 0,0 5,-5 -12.5,0 5,5 Z"
         style="fill:#ffff00;fill-opacity:1;fill-rule:evenodd;stroke:#ffff00;stroke-width:1.00000003pt;stroke-opacity:1"
         transform="matrix(0.8,0,0,0.8,10,0)"
         inkscape:connector-curvature="0" />
    </marker>
    <marker
       inkscape:stockid="Arrow1Lstart"
       orient="auto"
       refY="0"
       refX="0"
       id="marker1147"
       style="overflow:visible"
       inkscape:isstock="true">
      <path
         id="path1145"
         d="M 0,0 5,-5 -12.5,0 5,5 Z"
         style="fill:#ffff00;fill-opacity:1;fill-rule:evenodd;stroke:#ffff00;stroke-width:1.00000003pt;stroke-opacity:1"
         transform="matrix(0.8,0,0,0.8,10,0)"
         inkscape:connector-curvature="0" />
    </marker>
    <marker
       inkscape:stockid="Arrow1Lstart"
       orient="auto"
       refY="0"
       refX="0"
       id="marker1125"
       style="overflow:visible"
       inkscape:isstock="true">
      <path
         id="path1123"
         d="M 0,0 5,-5 -12.5,0 5,5 Z"
         style="fill:#ffff00;fill-opacity:1;fill-rule:evenodd;stroke:#ffff00;stroke-width:1.00000003pt;stroke-opacity:1"
         transform="matrix(0.8,0,0,0.8,10,0)"
         inkscape:connector-curvature="0" />
    </marker>
    <marker
       inkscape:stockid="Arrow1Lstart"
       orient="auto"
       refY="0"
       refX="0"
       id="Arrow1Lstart"
       style="overflow:visible"
       inkscape:isstock="true">
      <path
         id="path847"
         d="M 0,0 5,-5 -12.5,0 5,5 Z"
         style="fill:#ffff00;fill-opacity:1;fill-rule:evenodd;stroke:#ffff00;stroke-width:1.00000003pt;stroke-opacity:1"
         transform="matrix(0.8,0,0,0.8,10,0)"
         inkscape:connector-curvature="0" />
    </marker>
  </defs>
  <sodipodi:namedview
     pagecolor="#ffffff"
     bordercolor="#666666"
     borderopacity="1"
     objecttolerance="10"
     gridtolerance="10"
     guidetolerance="10"
     inkscape:pageopacity="0"
     inkscape:pageshadow="2"
     inkscape:window-width="1440"
     inkscape:window-height="790"
     id="namedview82"
     showgrid="false"
     inkscape:pagecheckerboard="true"
     inkscape:zoom="0.5"
     inkscape:cx="412.84084"
     inkscape:cy="207.2186"
     inkscape:window-x="0"
     inkscape:window-y="1"
     inkscape:window-maximized="1"
     inkscape:current-layer="layer3"
     showguides="true"
     inkscape:guide-bbox="true"
     fit-margin-top="1.3"
     fit-margin-right="1.3"
     fit-margin-bottom="1.3"
     fit-margin-left="1.3" />
  <g
     inkscape:groupmode="layer"
     id="layer4"
     inkscape:label="tooth"
     transform="translate(-29.850171,-453.5493)"
     style="display:inline">
    <path
       style="opacity:0.95;fill:none;stroke:#fffff5;stroke-width:11.39999962;stroke-linecap:round;stroke-linejoin:round;stroke-miterlimit:4;stroke-dasharray:none;stroke-opacity:1"
       d="m 124.30885,939.00157 19.54687,41.40625 27.9375,-31.74219"
       id="path845"
       inkscape:connector-curvature="0"
       sodipodi:nodetypes="ccc" />
  </g>
  <g
     inkscape:groupmode="layer"
     id="layer2"
     inkscape:label="Yellow"
     style="display:inline"
     transform="translate(-29.850171,-453.5493)">
    <path
       style="fill:none;fill-opacity:1;stroke:#efef00;stroke-width:17.10000038;stroke-linecap:round;stroke-linejoin:round;stroke-miterlimit:4;stroke-dasharray:none;stroke-opacity:1"
       d="m 585.10263,887.02132 30.15562,-136.12617 -27.25736,-28.84315 -14.28841,-39.16648 5.65076,-32.50158 19.34463,-25.55874 -21.44962,-56.93005 c -3.11604,-3.27072 -3.94615,-4.23881 -8.375,-8.125 l -53.46383,25.125 -24.16117,34 -9.5,33 c -6.73602,14.8993 -11.16056,29.6918 -18.0929,44.50023 -8.06089,20.44866 -18.63585,39.67249 -28.7821,59.12477 -12.84315,9.92513 -25.20523,20.43233 -37.625,30.875 l -46,45.5 -66.61522,29.48528 -121.38478,-32.48528 -53,29 -62.999998,-18 32,89 207.844038,42.0052 -86.32453,20.49785 -96.65124,4.1433 -31.868268,48.3536 171.304148,23.3874 141.69585,3.6126 103.51472,-23.0294 42.73054,-43.8481"
       id="path4073"
       inkscape:connector-curvature="0"
       sodipodi:nodetypes="cccccccccccccccccccccccccccc"
       inkscape:export-xdpi="246.38469"
       inkscape:export-ydpi="246.38469" />
    <path
       style="fill:none;stroke:#efef00;stroke-width:15;stroke-linecap:round;stroke-linejoin:round;stroke-miterlimit:4;stroke-dasharray:none;stroke-opacity:1"
       d="m 598.70787,624.8252 39.55084,-48.30595 -15.41469,66.61304 38.53306,-48.36805 -23.58201,77.32629 33.71444,-39.5195 -26.21142,68.6967 35.26168,-37 -21.68971,53.77819 -19.79858,23.90904 -23.89902,9.88644"
       id="path4933"
       inkscape:connector-curvature="0"
       sodipodi:nodetypes="ccccccccccc"
       inkscape:export-xdpi="246.38469"
       inkscape:export-ydpi="246.38469" />
    <path
       style="fill:none;stroke:#efef00;stroke-width:17.10000038;stroke-linecap:round;stroke-linejoin:round;stroke-miterlimit:4;stroke-dasharray:none;stroke-opacity:1"
       d="m 491.25825,618.89515 -35.94542,-71.1076 4.09336,153.17262 -44.59564,-95.83926 9.0727,154.39924 -36.85076,-98.25414 -3.77424,137.12914"
       id="path823"
       inkscape:connector-curvature="0"
       sodipodi:nodetypes="ccccccc"
       inkscape:export-xdpi="246.38469"
       inkscape:export-ydpi="246.38469" />
  </g>
  <g
     inkscape:groupmode="layer"
     id="layer3"
     inkscape:label="Red"
     transform="translate(-29.850171,-453.5493)"
     style="display:inline;opacity:1">
    <path
       id="path842-4"
       style="fill:none;stroke:#c70067;stroke-width:5;stroke-linecap:round;stroke-linejoin:round;stroke-miterlimit:4;stroke-dasharray:none;stroke-opacity:1"
       d="m 594.48513,503.45011 -23.74219,52.63298 M 620.328,543.6688 570.74294,556.08309 m 65.24852,-16.58962 -15.66346,4.17533 5.45747,-18.23225 m -21.48357,-33.37147 -9.81677,11.38503 18.30519,2.53367 m -28.23111,-16.75975 44.72451,66.65685 m 6.70774,-16.38741 -31.68956,-47.42839 -19.74269,-2.84105 m 0,0 -15.67596,68.54612 60.40047,-1.88927 6.70774,-16.38741"
       inkscape:connector-curvature="0" />
    <path
       id="path842-4-9-6"
       style="display:inline;fill:none;stroke:#c70067;stroke-width:5;stroke-linecap:round;stroke-linejoin:round;stroke-miterlimit:4;stroke-dasharray:none;stroke-opacity:1"
       d="m 544.73227,502.78968 22.33672,53.24465 m -49.23806,-13.72612 49.23806,13.72612 m -64.78517,-18.31575 15.54711,4.58963 -4.97159,-18.37068 m 22.36182,-32.78945 9.51111,11.6416 -18.366,2.04688 m 28.66604,-16.00447 -46.47811,65.44618 m -6.27038,-16.55969 32.93734,-46.5705 19.81115,-2.31599 m 0,0 13.85094,68.93806 -60.32905,-3.49188 -6.27038,-16.55969"
       inkscape:connector-curvature="0" />
    <path
       id="path1567"
       style="fill:none;fill-opacity:1;stroke:#c70067;stroke-width:13;stroke-linecap:round;stroke-linejoin:round;stroke-miterlimit:4;stroke-dasharray:none;stroke-opacity:1"
       d="m 601.72608,960.82279 5.07638,-43.20498 m -79.58689,-37.30899 -32.37082,127.07098 m 140.0166,-62.03211 -33.13527,15.4751 -106.88133,46.55701 m 50.90139,-156.33888 -18.53057,29.2679 42.86324,-1.28315 m -69.68948,-26.84393 125.66452,132.46941 m 8.8075,-39.30346 -89.11521,-94.30677 -45.35681,1.14082 m 0,0 -9.07324,159.68916 134.73776,-27.21975 8.8075,-39.30346"
       inkscape:connector-curvature="0"
       sodipodi:nodetypes="ccccccccccccccccccc" />
  </g>
  <g
     inkscape:groupmode="layer"
     id="layer5"
     inkscape:label="Tail"
     style="display:none"
     transform="translate(-29.850171,-453.5493)"
     sodipodi:insensitive="true">
    <path
       style="fill:none;stroke:#c70067;stroke-width:2.98972344;stroke-linecap:round;stroke-linejoin:round;stroke-miterlimit:4;stroke-dasharray:none;stroke-opacity:1"
       d="m 399.16536,485.52525 -3.98878,70.20253 59.23338,-11.96636 3.87196,-17.27857"
       id="path828-7-3"
       inkscape:connector-curvature="0"
       sodipodi:nodetypes="cccc" />
    <path
       style="fill:none;stroke:#c70067;stroke-width:2.98972344;stroke-linecap:round;stroke-linejoin:round;stroke-miterlimit:4;stroke-dasharray:none;stroke-opacity:1"
       d="m 458.28192,526.48285 -39.17681,-41.45912 -19.93975,0.50152"
       id="path830-9-7"
       inkscape:connector-curvature="0"
       sodipodi:nodetypes="ccc" />
    <path
       style="fill:none;stroke:#c70067;stroke-width:2.98972344;stroke-linecap:butt;stroke-linejoin:round;stroke-miterlimit:4;stroke-dasharray:none;stroke-opacity:1"
       d="m 399.16536,485.52525 55.2446,58.23617"
       id="path832-3-9"
       inkscape:connector-curvature="0" />
    <path
       style="fill:none;stroke:#c70067;stroke-width:2.98972344;stroke-linecap:round;stroke-linejoin:round;stroke-miterlimit:4;stroke-dasharray:none;stroke-opacity:1"
       d="m 419.10511,485.02373 -7.77397,12.86675 18.47109,-0.5641"
       id="path834-8-0"
       inkscape:connector-curvature="0"
       sodipodi:nodetypes="ccc" />
    <path
       style="fill:none;stroke:#c70067;stroke-width:2.98972344;stroke-linecap:round;stroke-linejoin:round;stroke-miterlimit:4;stroke-dasharray:none;stroke-opacity:1"
       d="m 458.28192,526.48285 -14.74432,6.73666 2.33071,-18.88827"
       id="path836-0-2"
       inkscape:connector-curvature="0"
       sodipodi:nodetypes="ccc" />
    <path
       style="fill:none;stroke:#c70067;stroke-width:2.98972344;stroke-linecap:round;stroke-linejoin:round;stroke-miterlimit:4;stroke-dasharray:none;stroke-opacity:1"
       d="m 443.5376,533.21951 -46.80974,20.5339"
       id="path838-2-3"
       inkscape:connector-curvature="0"
       sodipodi:nodetypes="cc" />
    <path
       style="fill:none;stroke:#c70067;stroke-width:2.98972344;stroke-linecap:round;stroke-linejoin:round;stroke-miterlimit:4;stroke-dasharray:none;stroke-opacity:1"
       d="m 411.33114,497.89048 -14.60328,55.86293"
       id="path842-4-9"
       inkscape:connector-curvature="0"
       sodipodi:nodetypes="cc" />
  </g>
</svg>
